<svg width="114" height="111" viewBox="0 0 114 111" fill="none" xmlns="http://www.w3.org/2000/svg">
<path d="M0 55.2382C0 31.554 0 19.7119 6.31375 11.5891C7.84585 9.618 9.618 7.84585 11.5891 6.31375C19.7119 0 31.554 0 55.2382 0H58.3947C82.0789 0 93.921 0 102.044 6.31375C104.015 7.84585 105.787 9.618 107.319 11.5891C113.633 19.7119 113.633 31.554 113.633 55.2382C113.633 78.9224 113.633 90.7645 107.319 98.8873C105.787 100.858 104.015 102.631 102.044 104.163C93.921 110.476 82.0789 110.476 58.3947 110.476H55.2382C31.554 110.476 19.7119 110.476 11.5891 104.163C9.618 102.631 7.84585 100.858 6.31375 98.8873C0 90.7645 0 78.9224 0 55.2382Z" fill="white"/>
<path fill-rule="evenodd" clip-rule="evenodd" d="M71.1442 56.5401C71.1442 58.8386 70.8602 61.1372 70.8602 61.1372C70.8602 61.1372 70.5833 63.0933 69.7313 63.9559C68.6521 65.0866 67.4416 65.0919 66.886 65.1576C62.9119 65.4451 56.9444 65.454 56.9444 65.454C56.9444 65.454 49.5605 65.3865 47.2885 65.17C46.6567 65.0511 45.2367 65.0866 44.1575 63.9559C43.3055 63.0933 43.0286 61.1372 43.0286 61.1372C43.0286 61.1372 42.7446 58.8386 42.7446 56.5401V54.3852C42.7446 52.0866 43.0286 49.7898 43.0286 49.7898C43.0286 49.7898 43.3055 47.832 44.1575 46.9694C45.2367 45.8387 46.4472 45.8334 47.0028 45.7677C50.9769 45.4802 56.9391 45.4802 56.9391 45.4802H56.9497C56.9497 45.4802 62.9119 45.4802 66.886 45.7677C67.4416 45.8334 68.6521 45.8387 69.7313 46.9694C70.5833 47.832 70.8602 49.7898 70.8602 49.7898C70.8602 49.7898 71.1442 52.0866 71.1442 54.3852V56.5401ZM56.9444 27.0684C41.2589 27.0684 28.5448 39.7825 28.5448 55.468C28.5448 71.1516 41.2589 83.8676 56.9444 83.8676C72.6299 83.8676 85.344 71.1516 85.344 55.468C85.344 39.7825 72.6299 27.0684 56.9444 27.0684Z" fill="#EA412C"/>
<path fill-rule="evenodd" clip-rule="evenodd" d="M54.0124 59.1502L61.6856 55.1743L54.0106 51.1699L54.0124 59.1502Z" fill="#EA412C"/>
</svg>
